<svg width="185" height="39" viewBox="0 0 185 39" fill="none" xmlns="http://www.w3.org/2000/svg">
<g filter="url(#filter0_d_21_1888)">
<rect x="3.67184" y="3.66" width="31.68" height="31.68" rx="15.84" stroke="#FCC436" stroke-width="1.32"/>
</g>
<path d="M53.476 23.144C52.924 23.144 52.408 23.044 51.928 22.844C51.448 22.644 51.026 22.35 50.662 21.962C50.298 21.574 50.012 21.096 49.804 20.528C49.596 19.956 49.492 19.302 49.492 18.566C49.492 17.826 49.594 17.174 49.798 16.61C50.006 16.042 50.292 15.566 50.656 15.182C51.02 14.798 51.442 14.508 51.922 14.312C52.402 14.116 52.92 14.018 53.476 14.018C54.028 14.018 54.544 14.116 55.024 14.312C55.508 14.508 55.932 14.798 56.296 15.182C56.66 15.566 56.944 16.042 57.148 16.61C57.352 17.174 57.454 17.826 57.454 18.566C57.454 19.302 57.35 19.956 57.142 20.528C56.938 21.096 56.652 21.574 56.284 21.962C55.92 22.35 55.496 22.644 55.012 22.844C54.532 23.044 54.02 23.144 53.476 23.144ZM53.476 21.65C53.848 21.65 54.192 21.548 54.508 21.344C54.828 21.14 55.084 20.812 55.276 20.36C55.468 19.904 55.564 19.306 55.564 18.566C55.564 17.822 55.466 17.226 55.27 16.778C55.078 16.33 54.824 16.008 54.508 15.812C54.192 15.612 53.848 15.512 53.476 15.512C53.104 15.512 52.758 15.612 52.438 15.812C52.122 16.008 51.868 16.33 51.676 16.778C51.484 17.226 51.388 17.822 51.388 18.566C51.388 19.31 51.484 19.908 51.676 20.36C51.868 20.812 52.122 21.14 52.438 21.344C52.758 21.548 53.104 21.65 53.476 21.65ZM58.6791 23V16.628H60.5451V18.824L60.1611 18.584C60.2051 18.284 60.2851 18.008 60.4011 17.756C60.5171 17.504 60.6671 17.286 60.8511 17.102C61.0351 16.914 61.2531 16.768 61.5051 16.664C61.7611 16.56 62.0531 16.508 62.3811 16.508C62.6371 16.508 62.8371 16.528 62.9811 16.568C63.1291 16.604 63.2211 16.632 63.2571 16.652L62.9511 18.32C62.9151 18.3 62.8351 18.268 62.7111 18.224C62.5871 18.18 62.4271 18.158 62.2311 18.158C61.9111 18.158 61.6431 18.212 61.4271 18.32C61.2111 18.428 61.0371 18.572 60.9051 18.752C60.7771 18.928 60.6851 19.124 60.6291 19.34C60.5731 19.556 60.5451 19.774 60.5451 19.994V23H58.6791ZM66.7455 23.144C66.2135 23.144 65.7235 23.018 65.2755 22.766C64.8275 22.51 64.4675 22.132 64.1955 21.632C63.9235 21.132 63.7875 20.516 63.7875 19.784C63.7875 19.084 63.9255 18.49 64.2015 18.002C64.4815 17.514 64.8455 17.144 65.2935 16.892C65.7455 16.636 66.2295 16.508 66.7455 16.508C67.2495 16.508 67.7095 16.636 68.1255 16.892C68.5455 17.148 68.8815 17.498 69.1335 17.942C69.3855 18.382 69.5115 18.89 69.5115 19.466C69.5115 19.486 69.5115 19.506 69.5115 19.526C69.5115 19.542 69.5115 19.56 69.5115 19.58L68.7075 19.592C68.7075 19.58 68.7075 19.568 68.7075 19.556C68.7075 19.54 68.7075 19.526 68.7075 19.514C68.7075 19.214 68.6355 18.956 68.4915 18.74C68.3475 18.524 68.1615 18.358 67.9335 18.242C67.7055 18.122 67.4675 18.062 67.2195 18.062C66.8075 18.062 66.4515 18.2 66.1515 18.476C65.8515 18.748 65.7015 19.184 65.7015 19.784C65.7015 20.384 65.8515 20.826 66.1515 21.11C66.4555 21.39 66.8115 21.53 67.2195 21.53C67.4755 21.53 67.7175 21.47 67.9455 21.35C68.1735 21.226 68.3575 21.052 68.4975 20.828C68.6375 20.604 68.7075 20.34 68.7075 20.036L69.5115 20.078C69.5115 20.65 69.3875 21.168 69.1395 21.632C68.8955 22.092 68.5635 22.46 68.1435 22.736C67.7275 23.008 67.2615 23.144 66.7455 23.144ZM68.7075 23V13.622H70.5735V23H68.7075ZM71.9196 23V16.628H73.7616V23H71.9196ZM72.8376 15.59C72.5496 15.59 72.2976 15.514 72.0816 15.362C71.8696 15.21 71.7636 14.996 71.7636 14.72C71.7636 14.44 71.8696 14.224 72.0816 14.072C72.2976 13.92 72.5496 13.844 72.8376 13.844C73.1296 13.844 73.3816 13.92 73.5936 14.072C73.8096 14.224 73.9176 14.44 73.9176 14.72C73.9176 15 73.8096 15.216 73.5936 15.368C73.3816 15.516 73.1296 15.59 72.8376 15.59ZM79.6203 23V20.294C79.6203 20.142 79.6203 20.004 79.6203 19.88C79.6203 19.756 79.6203 19.644 79.6203 19.544C79.6203 19.28 79.5863 19.04 79.5183 18.824C79.4503 18.604 79.3283 18.428 79.1523 18.296C78.9763 18.164 78.7223 18.098 78.3903 18.098C78.1023 18.098 77.8523 18.164 77.6403 18.296C77.4323 18.428 77.2723 18.612 77.1603 18.848C77.0483 19.084 76.9923 19.356 76.9923 19.664L76.4763 19.292C76.4763 18.74 76.5963 18.256 76.8363 17.84C77.0763 17.424 77.4003 17.098 77.8083 16.862C78.2203 16.626 78.6763 16.508 79.1763 16.508C79.7003 16.508 80.1303 16.614 80.4662 16.826C80.8063 17.034 81.0583 17.326 81.2223 17.702C81.3903 18.074 81.4743 18.51 81.4743 19.01C81.4743 19.214 81.4743 19.442 81.4743 19.694C81.4743 19.946 81.4743 20.204 81.4743 20.468V23H79.6203ZM75.1323 23V16.628H76.9923V23H75.1323ZM85.0266 23.132C84.5626 23.132 84.1486 23.058 83.7846 22.91C83.4246 22.762 83.1426 22.548 82.9386 22.268C82.7346 21.988 82.6326 21.648 82.6326 21.248C82.6326 20.796 82.7566 20.428 83.0046 20.144C83.2526 19.86 83.5806 19.644 83.9886 19.496C84.4006 19.344 84.8466 19.244 85.3266 19.196C86.0266 19.128 86.5086 19.066 86.7726 19.01C87.0406 18.954 87.1746 18.856 87.1746 18.716C87.1746 18.712 87.1746 18.708 87.1746 18.704C87.1746 18.468 87.0606 18.282 86.8326 18.146C86.6086 18.01 86.2946 17.942 85.8906 17.942C85.4626 17.942 85.1346 18.02 84.9066 18.176C84.6826 18.328 84.5706 18.562 84.5706 18.878H82.7406C82.7406 18.366 82.8786 17.934 83.1546 17.582C83.4346 17.23 83.8126 16.964 84.2886 16.784C84.7646 16.6 85.3026 16.508 85.9026 16.508C86.4626 16.508 86.9806 16.594 87.4566 16.766C87.9326 16.934 88.3146 17.188 88.6026 17.528C88.8946 17.868 89.0406 18.3 89.0406 18.824C89.0406 18.908 89.0406 18.992 89.0406 19.076C89.0406 19.156 89.0406 19.238 89.0406 19.322V21.578C89.0406 21.742 89.0446 21.9 89.0526 22.052C89.0646 22.2 89.0886 22.336 89.1246 22.46C89.1646 22.6 89.2146 22.716 89.2746 22.808C89.3346 22.9 89.3846 22.964 89.4246 23H87.5946C87.5666 22.972 87.5226 22.914 87.4626 22.826C87.4066 22.738 87.3586 22.636 87.3186 22.52C87.2706 22.38 87.2346 22.24 87.2106 22.1C87.1906 21.956 87.1806 21.788 87.1806 21.596L87.5646 21.86C87.4526 22.124 87.2706 22.352 87.0186 22.544C86.7706 22.732 86.4746 22.878 86.1306 22.982C85.7906 23.082 85.4226 23.132 85.0266 23.132ZM85.5246 21.74C85.8166 21.74 86.0886 21.688 86.3406 21.584C86.5966 21.476 86.8046 21.308 86.9646 21.08C87.1246 20.852 87.2046 20.554 87.2046 20.186V19.544L87.6666 19.994C87.4026 20.09 87.0966 20.17 86.7486 20.234C86.4046 20.294 86.0606 20.342 85.7166 20.378C85.3086 20.418 85.0026 20.488 84.7986 20.588C84.5986 20.684 84.4986 20.848 84.4986 21.08C84.4986 21.3 84.5846 21.466 84.7566 21.578C84.9286 21.686 85.1846 21.74 85.5246 21.74ZM90.4018 23V16.628H92.2678V18.824L91.8838 18.584C91.9278 18.284 92.0078 18.008 92.1238 17.756C92.2398 17.504 92.3898 17.286 92.5738 17.102C92.7578 16.914 92.9758 16.768 93.2278 16.664C93.4838 16.56 93.7758 16.508 94.1038 16.508C94.3598 16.508 94.5598 16.528 94.7038 16.568C94.8518 16.604 94.9438 16.632 94.9798 16.652L94.6738 18.32C94.6378 18.3 94.5578 18.268 94.4338 18.224C94.3098 18.18 94.1498 18.158 93.9538 18.158C93.6338 18.158 93.3658 18.212 93.1498 18.32C92.9338 18.428 92.7598 18.572 92.6278 18.752C92.4998 18.928 92.4078 19.124 92.3518 19.34C92.2958 19.556 92.2678 19.774 92.2678 19.994V23H90.4018ZM96.4493 25.754C96.2493 25.754 96.0693 25.746 95.9093 25.73C95.7533 25.718 95.6553 25.704 95.6153 25.688V24.278C95.6673 24.302 95.7573 24.32 95.8853 24.332C96.0173 24.348 96.1573 24.356 96.3053 24.356C96.5013 24.356 96.6773 24.316 96.8333 24.236C96.9933 24.16 97.1293 24.05 97.2413 23.906C97.3573 23.766 97.4473 23.6 97.5113 23.408L97.6193 23.084L95.4233 16.628H97.3613L98.7473 21.854H98.5313L99.8633 16.628H101.777L99.5873 23.318C99.4233 23.822 99.2213 24.256 98.9813 24.62C98.7413 24.984 98.4213 25.264 98.0213 25.46C97.6213 25.656 97.0973 25.754 96.4493 25.754ZM105.666 23V14.15H108.528C109.12 14.15 109.658 14.258 110.142 14.474C110.63 14.686 111.048 14.988 111.396 15.38C111.748 15.768 112.018 16.232 112.206 16.772C112.394 17.312 112.488 17.908 112.488 18.56C112.488 19.212 112.394 19.81 112.206 20.354C112.018 20.898 111.748 21.368 111.396 21.764C111.048 22.156 110.63 22.46 110.142 22.676C109.658 22.892 109.12 23 108.528 23H105.666ZM107.538 22.448L106.698 21.56H108.288C108.72 21.56 109.11 21.44 109.458 21.2C109.81 20.956 110.088 20.61 110.292 20.162C110.496 19.71 110.598 19.176 110.598 18.56C110.598 17.94 110.496 17.41 110.292 16.97C110.088 16.526 109.81 16.186 109.458 15.95C109.11 15.71 108.72 15.59 108.288 15.59H106.698L107.538 14.702V22.448ZM113.71 23V16.628H115.576V18.824L115.192 18.584C115.236 18.284 115.316 18.008 115.432 17.756C115.548 17.504 115.698 17.286 115.882 17.102C116.066 16.914 116.284 16.768 116.536 16.664C116.792 16.56 117.084 16.508 117.412 16.508C117.668 16.508 117.868 16.528 118.012 16.568C118.16 16.604 118.252 16.632 118.288 16.652L117.982 18.32C117.946 18.3 117.866 18.268 117.742 18.224C117.618 18.18 117.458 18.158 117.262 18.158C116.942 18.158 116.674 18.212 116.458 18.32C116.242 18.428 116.068 18.572 115.936 18.752C115.808 18.928 115.716 19.124 115.66 19.34C115.604 19.556 115.576 19.774 115.576 19.994V23H113.71ZM119.158 23V16.628H121V23H119.158ZM120.076 15.59C119.788 15.59 119.536 15.514 119.32 15.362C119.108 15.21 119.002 14.996 119.002 14.72C119.002 14.44 119.108 14.224 119.32 14.072C119.536 13.92 119.788 13.844 120.076 13.844C120.368 13.844 120.62 13.92 120.832 14.072C121.048 14.224 121.156 14.44 121.156 14.72C121.156 15 121.048 15.216 120.832 15.368C120.62 15.516 120.368 15.59 120.076 15.59ZM126.859 23V20.294C126.859 20.142 126.859 20.004 126.859 19.88C126.859 19.756 126.859 19.644 126.859 19.544C126.859 19.28 126.825 19.04 126.757 18.824C126.689 18.604 126.567 18.428 126.391 18.296C126.215 18.164 125.961 18.098 125.629 18.098C125.341 18.098 125.091 18.164 124.879 18.296C124.671 18.428 124.511 18.612 124.399 18.848C124.287 19.084 124.231 19.356 124.231 19.664L123.715 19.292C123.715 18.74 123.835 18.256 124.075 17.84C124.315 17.424 124.639 17.098 125.047 16.862C125.459 16.626 125.915 16.508 126.415 16.508C126.939 16.508 127.369 16.614 127.705 16.826C128.045 17.034 128.297 17.326 128.461 17.702C128.629 18.074 128.713 18.51 128.713 19.01C128.713 19.214 128.713 19.442 128.713 19.694C128.713 19.946 128.713 20.204 128.713 20.468V23H126.859ZM122.371 23V16.628H124.231V23H122.371ZM130.105 23V13.622H131.869V18.992L131.503 18.8L133.933 16.628H136.213L133.057 19.448L133.453 18.74L136.159 23H134.203L132.235 19.718L132.709 19.754L131.677 20.69L131.869 19.892V23H130.105Z" fill="#FCC436"/>
<path d="M15.479 10.2439C15.1201 10.2439 14.8291 10.5349 14.8291 10.8938V17.3929C14.8291 20.0447 16.8144 22.2328 19.3797 22.5522C19.3789 22.5654 19.3785 22.5787 19.3785 22.5922V27.1416H17.4287C17.0698 27.1416 16.7788 27.4326 16.7788 27.7915C16.7788 28.1504 17.0698 28.4414 17.4287 28.4414H22.628C22.9869 28.4414 23.2779 28.1504 23.2779 27.7915C23.2779 27.4326 22.9869 27.1416 22.628 27.1416H20.6783V22.5922C20.6783 22.5787 20.6779 22.5654 20.6771 22.5522C23.2425 22.2328 25.2277 20.0447 25.2277 17.3929V10.8938C25.2277 10.5349 24.9366 10.2439 24.5778 10.2439H15.479ZM16.1289 14.1434V11.5437H23.9278V14.1434H16.1289ZM23.5811 17.1371C23.4979 17.8873 23.1793 18.592 22.6709 19.15C22.1626 19.7081 21.4907 20.0909 20.7514 20.2436C20.3999 20.3162 20.0561 20.0901 19.9835 19.7386C19.9109 19.3871 20.137 19.0432 20.4885 18.9706C20.9589 18.8735 21.3865 18.6299 21.71 18.2747C22.0335 17.9196 22.2362 17.4712 22.2892 16.9938C22.3288 16.637 22.6501 16.3799 23.0068 16.4195C23.3636 16.459 23.6207 16.7803 23.5811 17.1371Z" fill="#FCC436"/>
<defs>
<filter id="filter0_d_21_1888" x="0.096664" y="0.0848231" width="38.8304" height="38.8304" filterUnits="userSpaceOnUse" color-interpolation-filters="sRGB">
<feFlood flood-opacity="0" result="BackgroundImageFix"/>
<feColorMatrix in="SourceAlpha" type="matrix" values="0 0 0 0 0 0 0 0 0 0 0 0 0 0 0 0 0 0 127 0" result="hardAlpha"/>
<feOffset/>
<feGaussianBlur stdDeviation="1.45759"/>
<feComposite in2="hardAlpha" operator="out"/>
<feColorMatrix type="matrix" values="0 0 0 0 0 0 0 0 0 0 0 0 0 0 0 0 0 0 0.25 0"/>
<feBlend mode="normal" in2="BackgroundImageFix" result="effect1_dropShadow_21_1888"/>
<feBlend mode="normal" in="SourceGraphic" in2="effect1_dropShadow_21_1888" result="shape"/>
</filter>
</defs>
</svg>
